<svg xmlns="http://www.w3.org/2000/svg" xmlns:xlink="http://www.w3.org/1999/xlink" style="width:262px;height:154px" width="262" height="154" version="1.1" viewBox="0 0 262 154"><defs><filter id="f1" width="300%" height="300%" x="-1" y="-1"><feGaussianBlur result="blurOut" stdDeviation="2"/><feColorMatrix in="blurOut" result="blurOut2" type="matrix" values="0 0 0 0 0 0 0 0 0 0 0 0 0 0 0 0 0 0 .4 0"/><feOffset dx="4" dy="4" in="blurOut2" result="blurOut3"/><feBlend in="SourceGraphic" in2="blurOut3" mode="normal"/></filter></defs><g><line style="stroke:#a80036;stroke-width:1;stroke-dasharray:5,5" x1="36" x2="36" y1="38.297" y2="116.563"/><line style="stroke:#a80036;stroke-width:1;stroke-dasharray:5,5" x1="234" x2="234" y1="38.297" y2="116.563"/><rect style="stroke:#a80036;stroke-width:1.5" width="52" height="30.297" x="8" y="3" fill="#FEFECE" filter="url(#f1)"/><text x="15" y="22.995" fill="#000" font-family="sans-serif" font-size="14" lengthAdjust="spacingAndGlyphs" textLength="38">script</text><rect style="stroke:#a80036;stroke-width:1.5" width="52" height="30.297" x="8" y="115.563" fill="#FEFECE" filter="url(#f1)"/><text x="15" y="135.558" fill="#000" font-family="sans-serif" font-size="14" lengthAdjust="spacingAndGlyphs" textLength="38">script</text><rect style="stroke:#a80036;stroke-width:1.5" width="42" height="30.297" x="211" y="3" fill="#FEFECE" filter="url(#f1)"/><text x="218" y="22.995" fill="#000" font-family="sans-serif" font-size="14" lengthAdjust="spacingAndGlyphs" textLength="28">CEP</text><rect style="stroke:#a80036;stroke-width:1.5" width="42" height="30.297" x="211" y="115.563" fill="#FEFECE" filter="url(#f1)"/><text x="218" y="135.558" fill="#000" font-family="sans-serif" font-size="14" lengthAdjust="spacingAndGlyphs" textLength="28">CEP</text><polygon fill="#A80036" points="222 65.297 232 69.297 222 73.297 226 69.297" style="stroke:#a80036;stroke-width:1"/><line style="stroke:#a80036;stroke-width:1" x1="36" x2="228" y1="69.297" y2="69.297"/><text x="43" y="64.364" fill="#000" font-family="sans-serif" font-size="13" lengthAdjust="spacingAndGlyphs" textLength="105">/v1/admin/config</text><polygon fill="#A80036" points="222 94.43 232 98.43 222 102.43 226 98.43" style="stroke:#a80036;stroke-width:1"/><line style="stroke:#a80036;stroke-width:1" x1="36" x2="228" y1="98.43" y2="98.43"/><text x="43" y="93.497" fill="#000" font-family="sans-serif" font-size="13" lengthAdjust="spacingAndGlyphs" textLength="174">/v1/updateContext RoomXY</text></g></svg>