<svg xmlns="http://www.w3.org/2000/svg" xmlns:svg="http://www.w3.org/2000/svg" id="svg4141" width="344" height="250" version="1.1" viewBox="0 0 344 250"><metadata id="metadata4219"/><source><![CDATA[participant Broker as C
participant Cepheus CEP as B
B->C: subscribe(S1.temp)
C->B: notify(S1.temp, 27)
C->B: notify(S1.temp, 25)]]></source><desc id="desc4143">Created with Raphaël 2.1.2</desc><defs id="defs4145"><marker id="Arrow2Mend" orient="auto" refX="0" refY="0" style="overflow:visible"><path id="path4251" d="M 8.7185878,4.0337352 L -2.2072895,0.016013256 L 8.7185884,-4.0017078 C 6.9730900,-1.6296469 6.9831476,1.6157441 8.7185878,4.0337352 z" transform="scale(0.6) rotate(180) translate(0,0)" style="fill-rule:evenodd;stroke-width:.625;stroke-linejoin:round;stroke:#000;stroke-opacity:1;fill:#000;fill-opacity:1"/></marker><marker id="marker4901" orient="auto" refX="0" refY="0" style="overflow:visible"><path id="path4903" d="M 5.77,0.0 L -2.88,5.0 L -2.88,-5.0 L 5.77,0.0 z" transform="scale(0.4)" style="fill-rule:evenodd;stroke:#000;stroke-width:1pt;stroke-opacity:1;fill:#000;fill-opacity:1"/></marker><marker id="marker4731" orient="auto" refX="0" refY="0" style="overflow:visible"><path id="path4733" d="M 8.7185878,4.0337352 L -2.2072895,0.016013256 L 8.7185884,-4.0017078 C 6.9730900,-1.6296469 6.9831476,1.6157441 8.7185878,4.0337352 z" transform="scale(1.1) rotate(180) translate(1,0)" style="fill-rule:evenodd;stroke-width:.625;stroke-linejoin:round;stroke:#000;stroke-opacity:1;fill:#000;fill-opacity:1"/></marker><marker id="Arrow1Mend" orient="auto" refX="0" refY="0" style="overflow:visible"><path id="path4233" d="M 0.0,0.0 L 5.0,-5.0 L -12.5,0.0 L 5.0,5.0 L 0.0,0.0 z" transform="scale(0.4) rotate(180) translate(10,0)" style="fill-rule:evenodd;stroke:#000;stroke-width:1pt;stroke-opacity:1;fill:#000;fill-opacity:1"/></marker><marker id="TriangleOutM" orient="auto" refX="0" refY="0" style="overflow:visible"><path id="path4369" d="M 5.77,0.0 L -2.88,5.0 L -2.88,-5.0 L 5.77,0.0 z" transform="scale(0.4)" style="fill-rule:evenodd;stroke:#000;stroke-width:1pt;stroke-opacity:1;fill:#000;fill-opacity:1"/></marker><marker id="TriangleOutL" orient="auto" refX="0" refY="0" style="overflow:visible"><path id="path4366" d="M 5.77,0.0 L -2.88,5.0 L -2.88,-5.0 L 5.77,0.0 z" transform="scale(0.8)" style="fill-rule:evenodd;stroke:#000;stroke-width:1pt;stroke-opacity:1;fill:#000;fill-opacity:1"/></marker><marker id="Arrow2Lend" orient="auto" refX="0" refY="0" style="overflow:visible"><path id="path4245" d="M 8.7185878,4.0337352 L -2.2072895,0.016013256 L 8.7185884,-4.0017078 C 6.9730900,-1.6296469 6.9831476,1.6157441 8.7185878,4.0337352 z" transform="scale(1.1) rotate(180) translate(1,0)" style="fill-rule:evenodd;stroke-width:.625;stroke-linejoin:round;stroke:#000;stroke-opacity:1;fill:#000;fill-opacity:1"/></marker><marker id="Arrow1Lend" orient="auto" refX="0" refY="0" style="overflow:visible"><path id="path4227" d="M 0.0,0.0 L 5.0,-5.0 L -12.5,0.0 L 5.0,5.0 L 0.0,0.0 z" transform="scale(0.8) rotate(180) translate(12.5,0)" style="fill-rule:evenodd;stroke:#000;stroke-width:1pt;stroke-opacity:1;fill:#000;fill-opacity:1"/></marker><path id="raphael-marker-block" d="M 5,0 0,2.5 5,5 Z" style="stroke-linecap:round"/><marker id="raphael-marker-endblock55-obj857" markerHeight="5" markerWidth="5" orient="auto" refX="2.5" refY="2.5"><use id="use4149" width="100%" height="100%" x="0" y="0" transform="rotate(180,2.5,2.5)" style="fill:#000;stroke:none;stroke-width:1"/></marker><marker id="raphael-marker-endblock55-obj860" markerHeight="5" markerWidth="5" orient="auto" refX="2.5" refY="2.5"><use id="use4152" width="100%" height="100%" x="0" y="0" transform="rotate(180,2.5,2.5)" style="fill:#000;stroke:none;stroke-width:1"/></marker><marker id="raphael-marker-endblock55-obj863" markerHeight="5" markerWidth="5" orient="auto" refX="2.5" refY="2.5"><use id="use4155" width="100%" height="100%" x="0" y="0" transform="rotate(180,2.5,2.5)" style="fill:#000;stroke:none;stroke-width:1"/></marker></defs><rect style="fill:none;stroke:#000;stroke-width:2" id="rect4157" width="77.625" height="38" x="10" y="20" rx="0" ry="0"/><rect style="fill:#fff;stroke:none" id="rect4159" width="57.625" height="18" x="20" y="30" rx="0" ry="0"/><text style="font-size:16px;font-family:'Andale Mono',monospace;text-anchor:middle;fill:#000;stroke:none" id="text4161" x="48.813" y="39" font-size="16"><tspan id="tspan4163" dy="5.516">Broker</tspan></text><rect style="fill:none;stroke:#000;stroke-width:2" id="rect4165" width="77.625" height="38" x="10" y="192" rx="0" ry="0"/><rect style="fill:#fff;stroke:none" id="rect4167" width="57.625" height="18" x="20" y="202" rx="0" ry="0"/><text style="font-size:16px;font-family:'Andale Mono',monospace;text-anchor:middle;fill:#000;stroke:none" id="text4169" x="48.813" y="211" font-size="16"><tspan id="tspan4171" dy="5.516">Broker</tspan></text><path style="fill:none;stroke:#000;stroke-width:2" id="path4173" d="m 48.8125,58 0,134"/><rect style="fill:none;stroke:#000;stroke-width:2" id="rect4175" width="125.625" height="38" x="188.438" y="20" rx="0" ry="0"/><rect style="fill:#fff;stroke:none" id="rect4177" width="105.625" height="18" x="198.438" y="30" rx="0" ry="0"/><text style="font-size:16px;font-family:'Andale Mono',monospace;text-anchor:middle;fill:#000;stroke:none" id="text4179" x="251.25" y="39" font-size="16"><tspan id="tspan4181" dy="5.516">Cepheus CEP</tspan></text><rect style="fill:none;stroke:#000;stroke-width:2" id="rect4183" width="125.625" height="38" x="188.438" y="192" rx="0" ry="0"/><rect style="fill:#fff;stroke:none" id="rect4185" width="105.625" height="18" x="198.438" y="202" rx="0" ry="0"/><text style="font-size:16px;font-family:'Andale Mono',monospace;text-anchor:middle;fill:#000;stroke:none" id="text4187" x="251.25" y="211" font-size="16"><tspan id="tspan4189" dy="5.516">Cepheus CEP</tspan></text><path style="fill:none;stroke:#000;stroke-width:2" id="path4191" d="m 251.25,58 0,134"/><rect style="fill:#fff;stroke:none" id="rect4193" width="172.844" height="18" x="63.609" y="74" rx="0" ry="0"/><text style="font-size:16px;font-family:'Andale Mono',monospace;text-anchor:middle;fill:#000;stroke:none" id="text4195" x="150.031" y="83" font-size="16"><tspan id="tspan4197" dy="5.516">subscribe(S1.temp)</tspan></text><path style="fill:none;stroke:#000;stroke-width:2;stroke-dasharray:none;marker-end:url(#Arrow2Mend)" id="path4199" d="m 251.25,96 c 0,0 -166.259705,0 -197.433399,0"/><rect style="fill:#fff;stroke:none" id="rect4201" width="182.438" height="18" x="58.813" y="112" rx="0" ry="0"/><text style="font-size:16px;font-family:'Andale Mono',monospace;text-anchor:middle;fill:#000;stroke:none" id="text4203" x="150.031" y="121" font-size="16"><tspan id="tspan4205" dy="5.516">notify(S1.temp, 27)</tspan></text><path style="fill:none;stroke:#000;stroke-width:1.99937008;stroke-dasharray:none;marker-end:url(#TriangleOutM);stroke-miterlimit:4" id="path4207" d="m 48.8125,134 c 0,0 166.2597,0 197.4334,0"/><rect style="fill:#fff;stroke:none" id="rect4209" width="182.438" height="18" x="58.813" y="150" rx="0" ry="0"/><text style="font-size:16px;font-family:'Andale Mono',monospace;text-anchor:middle;fill:#000;stroke:none" id="text4211" x="150.031" y="159" font-size="16"><tspan id="tspan4213" dy="5.516">notify(S1.temp, 25)</tspan></text><path style="fill:none;stroke:#000;stroke-width:2;stroke-dasharray:none;marker-end:url(#marker4901)" id="path4215" d="m 48.8125,172 c 0,0 166.2597,0 197.4334,0"/></svg>