<svg xmlns="http://www.w3.org/2000/svg" xmlns:xlink="http://www.w3.org/1999/xlink" width="346" height="214"><source><![CDATA[participant Cepheus CEP as A
participant Broker as B
A->B: update(S1.temp, 25)
A->B: update(S1.temp, 26)]]></source><desc>Created with Raphaël 2.1.2</desc><defs><path id="raphael-marker-block" stroke-linecap="round" d="M5,0 0,2.5 5,5z"/><marker id="raphael-marker-endblock55-obj476" markerHeight="5" markerWidth="5" orient="auto" refX="2.5" refY="2.5"><use fill="#000" stroke="none" stroke-width="1" transform="rotate(180 2.5 2.5) scale(1,1)" xlink:href="#raphael-marker-block"/></marker><marker id="raphael-marker-endblock55-obj479" markerHeight="5" markerWidth="5" orient="auto" refX="2.5" refY="2.5"><use fill="#000" stroke="none" stroke-width="1" transform="rotate(180 2.5 2.5) scale(1,1)" xlink:href="#raphael-marker-block"/></marker></defs><rect width="126.6" height="38.5" x="10" y="20" fill="none" stroke="#000" stroke-width="2" rx="0" ry="0"/><rect width="106.6" height="18.5" x="20" y="30" fill="#fff" stroke="none" rx="0" ry="0"/><text x="73.3" y="39.25" fill="#000" stroke="none" font-family="Andale Mono, monospace" font-size="16" text-anchor="middle" style="text-anchor:middle;font-family:Andale Mono,monospace;font-size:16px"><tspan dy="5.75">Cepheus CEP</tspan></text><rect width="126.6" height="38.5" x="10" y="155.5" fill="none" stroke="#000" stroke-width="2" rx="0" ry="0"/><rect width="106.6" height="18.5" x="20" y="165.5" fill="#fff" stroke="none" rx="0" ry="0"/><text x="73.3" y="174.75" fill="#000" stroke="none" font-family="Andale Mono, monospace" font-size="16" text-anchor="middle" style="text-anchor:middle;font-family:Andale Mono,monospace;font-size:16px"><tspan dy="5.75">Cepheus CEP</tspan></text><path fill="none" stroke="#000" stroke-width="2" d="M73.29999923706055,58.5L73.29999923706055,155.5"/><rect width="78.6" height="38.5" x="237.4" y="20" fill="none" stroke="#000" stroke-width="2" rx="0" ry="0"/><rect width="58.6" height="18.5" x="247.4" y="30" fill="#fff" stroke="none" rx="0" ry="0"/><text x="276.7" y="39.25" fill="#000" stroke="none" font-family="Andale Mono, monospace" font-size="16" text-anchor="middle" style="text-anchor:middle;font-family:Andale Mono,monospace;font-size:16px"><tspan dy="5.75">Broker</tspan></text><rect width="78.6" height="38.5" x="237.4" y="155.5" fill="none" stroke="#000" stroke-width="2" rx="0" ry="0"/><rect width="58.6" height="18.5" x="247.4" y="165.5" fill="#fff" stroke="none" rx="0" ry="0"/><text x="276.7" y="174.75" fill="#000" stroke="none" font-family="Andale Mono, monospace" font-size="16" text-anchor="middle" style="text-anchor:middle;font-family:Andale Mono,monospace;font-size:16px"><tspan dy="5.75">Broker</tspan></text><path fill="none" stroke="#000" stroke-width="2" d="M276.6999931335449,58.5L276.6999931335449,155.5"/><rect width="183.4" height="18.5" x="83.3" y="74.25" fill="#fff" stroke="none" rx="0" ry="0"/><text x="175" y="83.5" fill="#000" stroke="none" font-family="Andale Mono, monospace" font-size="16" text-anchor="middle" style="text-anchor:middle;font-family:Andale Mono,monospace;font-size:16px"><tspan dy="5.75">update(S1.temp, 25)</tspan></text><path fill="none" stroke="#000" stroke-dasharray="0" stroke-width="2" marker-end="url(#raphael-marker-endblock55-obj476)" d="M73.29999923706055,97C73.29999923706055,97,240.44020715085753,97,271.69738470504905,97"/><rect width="183.4" height="18.5" x="83.3" y="112.75" fill="#fff" stroke="none" rx="0" ry="0"/><text x="175" y="122" fill="#000" stroke="none" font-family="Andale Mono, monospace" font-size="16" text-anchor="middle" style="text-anchor:middle;font-family:Andale Mono,monospace;font-size:16px"><tspan dy="5.75">update(S1.temp, 26)</tspan></text><path fill="none" stroke="#000" stroke-dasharray="0" stroke-width="2" marker-end="url(#raphael-marker-endblock55-obj479)" d="M73.29999923706055,135.5C73.29999923706055,135.5,240.44020715085753,135.5,271.69738470504905,135.5"/></svg>