<svg xmlns="http://www.w3.org/2000/svg" xmlns:xlink="http://www.w3.org/1999/xlink" width="360" height="214"><source><![CDATA[participant IoT Agent as A
participant Cepheus CEP as B

A->B: update(S1.temp, 25)
A->B: update(S1.temp, 26)]]></source><desc>Created with Raphaël 2.1.2</desc><defs><path id="raphael-marker-block" stroke-linecap="round" d="M5,0 0,2.5 5,5z"/><marker id="raphael-marker-endblock55-obj956" markerHeight="5" markerWidth="5" orient="auto" refX="2.5" refY="2.5"><use fill="#000" stroke="none" stroke-width="1" transform="rotate(180 2.5 2.5) scale(1,1)" xlink:href="#raphael-marker-block"/></marker><marker id="raphael-marker-endblock55-obj959" markerHeight="5" markerWidth="5" orient="auto" refX="2.5" refY="2.5"><use fill="#000" stroke="none" stroke-width="1" transform="rotate(180 2.5 2.5) scale(1,1)" xlink:href="#raphael-marker-block"/></marker></defs><rect width="107.4" height="38.5" x="10" y="20" fill="none" stroke="#000" stroke-width="2" rx="0" ry="0"/><rect width="87.4" height="18.5" x="20" y="30" fill="#fff" stroke="none" rx="0" ry="0"/><text x="63.7" y="39.25" fill="#000" stroke="none" font-family="Andale Mono, monospace" font-size="16" text-anchor="middle" style="text-anchor:middle;font-family:Andale Mono,monospace;font-size:16px"><tspan dy="5.75">IoT Agent</tspan></text><rect width="107.4" height="38.5" x="10" y="155.5" fill="none" stroke="#000" stroke-width="2" rx="0" ry="0"/><rect width="87.4" height="18.5" x="20" y="165.5" fill="#fff" stroke="none" rx="0" ry="0"/><text x="63.7" y="174.75" fill="#000" stroke="none" font-family="Andale Mono, monospace" font-size="16" text-anchor="middle" style="text-anchor:middle;font-family:Andale Mono,monospace;font-size:16px"><tspan dy="5.75">IoT Agent</tspan></text><path fill="none" stroke="#000" stroke-width="2" d="M63.70000076293945,58.5L63.70000076293945,155.5"/><rect width="126.6" height="38.5" x="203.8" y="20" fill="none" stroke="#000" stroke-width="2" rx="0" ry="0"/><rect width="106.6" height="18.5" x="213.8" y="30" fill="#fff" stroke="none" rx="0" ry="0"/><text x="267.1" y="39.25" fill="#000" stroke="none" font-family="Andale Mono, monospace" font-size="16" text-anchor="middle" style="text-anchor:middle;font-family:Andale Mono,monospace;font-size:16px"><tspan dy="5.75">Cepheus CEP</tspan></text><rect width="126.6" height="38.5" x="203.8" y="155.5" fill="none" stroke="#000" stroke-width="2" rx="0" ry="0"/><rect width="106.6" height="18.5" x="213.8" y="165.5" fill="#fff" stroke="none" rx="0" ry="0"/><text x="267.1" y="174.75" fill="#000" stroke="none" font-family="Andale Mono, monospace" font-size="16" text-anchor="middle" style="text-anchor:middle;font-family:Andale Mono,monospace;font-size:16px"><tspan dy="5.75">Cepheus CEP</tspan></text><path fill="none" stroke="#000" stroke-width="2" d="M267.0999946594238,58.5L267.0999946594238,155.5"/><rect width="183.4" height="18.5" x="73.7" y="74.25" fill="#fff" stroke="none" rx="0" ry="0"/><text x="165.4" y="83.5" fill="#000" stroke="none" font-family="Andale Mono, monospace" font-size="16" text-anchor="middle" style="text-anchor:middle;font-family:Andale Mono,monospace;font-size:16px"><tspan dy="5.75">update(S1.temp, 25)</tspan></text><path fill="none" stroke="#000" stroke-dasharray="0" stroke-width="2" marker-end="url(#raphael-marker-endblock55-obj956)" d="M63.70000076293945,97C63.70000076293945,97,230.84020867673644,97,262.09738623092795,97"/><rect width="183.4" height="18.5" x="73.7" y="112.75" fill="#fff" stroke="none" rx="0" ry="0"/><text x="165.4" y="122" fill="#000" stroke="none" font-family="Andale Mono, monospace" font-size="16" text-anchor="middle" style="text-anchor:middle;font-family:Andale Mono,monospace;font-size:16px"><tspan dy="5.75">update(S1.temp, 26)</tspan></text><path fill="none" stroke="#000" stroke-dasharray="0" stroke-width="2" marker-end="url(#raphael-marker-endblock55-obj959)" d="M63.70000076293945,135.5C63.70000076293945,135.5,230.84020867673644,135.5,262.09738623092795,135.5"/></svg>