<svg xmlns="http://www.w3.org/2000/svg" xmlns:xlink="http://www.w3.org/1999/xlink" width="467" height="301"><source><![CDATA[participant run.sh as S
participant Cepheus CEP as CEP

S->CEP: POST /admin/config
S->CEP: update(Room11, 22°)
S->CEP: update(Room12, 24°)
Note over CEP: computes floor average]]></source><desc>Created with Raphaël 2.1.2</desc><defs><path id="raphael-marker-block" stroke-linecap="round" d="M5,0 0,2.5 5,5z"/><marker id="raphael-marker-endblock55-obj3594" markerHeight="5" markerWidth="5" orient="auto" refX="2.5" refY="2.5"><use fill="#000" stroke="none" stroke-width="1" transform="rotate(180 2.5 2.5) scale(1,1)" xlink:href="#raphael-marker-block"/></marker><marker id="raphael-marker-endblock55-obj3597" markerHeight="5" markerWidth="5" orient="auto" refX="2.5" refY="2.5"><use fill="#000" stroke="none" stroke-width="1" transform="rotate(180 2.5 2.5) scale(1,1)" xlink:href="#raphael-marker-block"/></marker><marker id="raphael-marker-endblock55-obj3600" markerHeight="5" markerWidth="5" orient="auto" refX="2.5" refY="2.5"><use fill="#000" stroke="none" stroke-width="1" transform="rotate(180 2.5 2.5) scale(1,1)" xlink:href="#raphael-marker-block"/></marker></defs><rect width="78.6" height="38.5" x="10" y="20" fill="none" stroke="#000" stroke-width="2" rx="0" ry="0"/><rect width="58.6" height="18.5" x="20" y="30" fill="#fff" stroke="none" rx="0" ry="0"/><text x="49.3" y="39.25" fill="#000" stroke="none" font-family="Andale Mono, monospace" font-size="16" text-anchor="middle" style="text-anchor:middle;font-family:Andale Mono,monospace;font-size:16px"><tspan dy="5.75">run.sh</tspan></text><rect width="78.6" height="38.5" x="10" y="242.5" fill="none" stroke="#000" stroke-width="2" rx="0" ry="0"/><rect width="58.6" height="18.5" x="20" y="252.5" fill="#fff" stroke="none" rx="0" ry="0"/><text x="49.3" y="261.75" fill="#000" stroke="none" font-family="Andale Mono, monospace" font-size="16" text-anchor="middle" style="text-anchor:middle;font-family:Andale Mono,monospace;font-size:16px"><tspan dy="5.75">run.sh</tspan></text><path fill="none" stroke="#000" stroke-width="2" d="M49.29999923706055,58.5L49.29999923706055,242.5"/><rect width="126.6" height="38.5" x="189.4" y="20" fill="none" stroke="#000" stroke-width="2" rx="0" ry="0"/><rect width="106.6" height="18.5" x="199.4" y="30" fill="#fff" stroke="none" rx="0" ry="0"/><text x="252.7" y="39.25" fill="#000" stroke="none" font-family="Andale Mono, monospace" font-size="16" text-anchor="middle" style="text-anchor:middle;font-family:Andale Mono,monospace;font-size:16px"><tspan dy="5.75">Cepheus CEP</tspan></text><rect width="126.6" height="38.5" x="189.4" y="242.5" fill="none" stroke="#000" stroke-width="2" rx="0" ry="0"/><rect width="106.6" height="18.5" x="199.4" y="252.5" fill="#fff" stroke="none" rx="0" ry="0"/><text x="252.7" y="261.75" fill="#000" stroke="none" font-family="Andale Mono, monospace" font-size="16" text-anchor="middle" style="text-anchor:middle;font-family:Andale Mono,monospace;font-size:16px"><tspan dy="5.75">Cepheus CEP</tspan></text><path fill="none" stroke="#000" stroke-width="2" d="M252.69999313354492,58.5L252.69999313354492,242.5"/><rect width="173.8" height="18.5" x="64.1" y="74.25" fill="#fff" stroke="none" rx="0" ry="0"/><text x="151" y="83.5" fill="#000" stroke="none" font-family="Andale Mono, monospace" font-size="16" text-anchor="middle" style="text-anchor:middle;font-family:Andale Mono,monospace;font-size:16px"><tspan dy="5.75">POST /admin/config</tspan></text><path fill="none" stroke="#000" stroke-dasharray="0" stroke-width="2" marker-end="url(#raphael-marker-endblock55-obj3594)" d="M49.29999923706055,97C49.29999923706055,97,216.44020715085753,97,247.69738470504907,97"/><rect width="183.4" height="18.5" x="59.3" y="112.75" fill="#fff" stroke="none" rx="0" ry="0"/><text x="151" y="122" fill="#000" stroke="none" font-family="Andale Mono, monospace" font-size="16" text-anchor="middle" style="text-anchor:middle;font-family:Andale Mono,monospace;font-size:16px"><tspan dy="5.75">update(Room11, 22°)</tspan></text><path fill="none" stroke="#000" stroke-dasharray="0" stroke-width="2" marker-end="url(#raphael-marker-endblock55-obj3597)" d="M49.29999923706055,135.5C49.29999923706055,135.5,216.44020715085753,135.5,247.69738470504907,135.5"/><rect width="183.4" height="18.5" x="59.3" y="151.25" fill="#fff" stroke="none" rx="0" ry="0"/><text x="151" y="160.5" fill="#000" stroke="none" font-family="Andale Mono, monospace" font-size="16" text-anchor="middle" style="text-anchor:middle;font-family:Andale Mono,monospace;font-size:16px"><tspan dy="5.75">update(Room12, 24°)</tspan></text><path fill="none" stroke="#000" stroke-dasharray="0" stroke-width="2" marker-end="url(#raphael-marker-endblock55-obj3600)" d="M49.29999923706055,174C49.29999923706055,174,216.44020715085753,174,247.69738470504907,174"/><rect width="222.2" height="28.5" x="141.6" y="194" fill="none" stroke="#000" stroke-width="2" rx="0" ry="0"/><rect width="212.2" height="18.5" x="146.6" y="199" fill="#fff" stroke="none" rx="0" ry="0"/><text x="252.7" y="208.25" fill="#000" stroke="none" font-family="Andale Mono, monospace" font-size="16" text-anchor="middle" style="text-anchor:middle;font-family:Andale Mono,monospace;font-size:16px"><tspan dy="5.75">computes floor average</tspan></text></svg>